<?xml version="1.0" encoding="UTF-8"?>
<svg id="Layer_1" data-name="Layer 1" xmlns="http://www.w3.org/2000/svg" viewBox="0 0 153 221.14">
  <defs>
    <style>
      .cls-1 {
        fill: #caa053;
      }

      .cls-2 {
        fill: #00607a;
      }
    </style>
  </defs>
  <g>
    <path class="cls-1" d="M138.78,164.42c-1-.85-2.07-1.61-3.12-2.39-5.73-4.24-11.48-8.46-17.19-12.72-1.55-1.15-2.96-2.49-4.47-3.68-.73-.57-.49-.87-.12-1.65,.83-1.76,1.37-3.66,2.28-5.42,.96-1.87,.95-4.08,1.43-6.12,.69-2.91,.81-6.01,.83-9.03,.07-15.73,.03-31.45,.03-47.18,0-1,.02-2-.01-3,0-.21-.17-.57-.3-.59-.32-.05-.78-.07-.99,.12-2.13,1.82-4.28,3.62-6.31,5.56-2.71,2.58-5.31,5.28-7.96,7.93-.18,.18-.35,.35-.53,.53-.12-.32-.36-.65-.36-.97-.02-10.11-.02-20.22-.02-30.33,0-1,.03-2-.02-2.99-.02-.31-.21-.78-.44-.86-.26-.09-.74,.06-.96,.28-2.9,2.83-5.64,5.84-8.97,8.19-.18,.13-.35,.27-.53,.4-.1-.21-.29-.41-.3-.62-.03-.87-.01-1.75-.01-2.62,0-9.61-.03-19.22,.03-28.83,0-1.34-.3-2.3-1.29-3.24-2.85-2.7-5.73-5.36-8.65-7.99-5.97-5.38-11.19-11.56-17.49-16.61-.25-.2-.53-.38-.79-.58-.09,.34-.25,.68-.25,1.01-.01,12.36-.01,24.72-.01,37.08,0,1,.02,2-.01,3,0,.21-.17,.43-.26,.64-.18-.11-.37-.19-.53-.32-1.58-1.32-3.2-2.6-4.71-3.98-1.47-1.35-2.82-2.82-4.26-4.21-.23-.22-.67-.39-.95-.32-.22,.06-.47,.51-.49,.8-.06,.87-.02,1.75-.02,2.62,0,14.98,.01,29.96-.01,44.94,0,1.83-.21,3.65-.31,5.48-1.32-1.29-2.61-2.63-3.98-3.87-3.45-3.15-6.24-7.02-10.27-9.55-.3-.19-.53-.49-.8-.74-.12,.45-.33,.9-.34,1.35-.02,9.61-.01,19.22-.01,28.83,0,8.36-.01,16.73,0,25.09,0,2.17,.21,4.28,.63,6.45,.96,4.89,3,9.4,5.52,13.43,3.02,4.82,7.13,9.05,12,12.19,6.83,4.41,14.27,7.02,22.56,7.06,3.2,.01,6.37-.21,9.4-.93,2.65-.63,5.32-1.37,7.87-2.68,3.92-2.02,7.87-3.85,10.86-7.24,.42-.48,1.03-.79,1.55-1.17-.52-.66-.97-1.39-1.59-1.95-.6-.54-1.38-.88-2.05-1.35-.9-.64-1.68-.72-2.58,.09-1.25,1.12-2.51,2.27-3.93,3.17-4.82,3.04-10.05,4.97-15.79,5.24-1.87,.09-3.75-.04-5.62,.02-4.37,.15-8.31-1.34-12.26-2.97-5.15-2.14-9.03-5.89-12.78-9.82-.51-.53-.5-.98,.16-1.46,4.78-3.54,9.54-7.11,14.31-10.67,4-3,8.02-5.97,11.98-9.03,.73-.57,1.15-.68,1.85-.02,.58,.55,1.4,.85,2.04,1.36,2.64,2.09,5.11,4.43,7.89,6.3,3.86,2.59,7.46,5.48,11.17,8.25,2.5,1.87,4.98,3.74,7.38,5.76,3.25,2.74,7.06,4.8,10.31,7.53,3.59,3.01,7.65,5.39,11.06,8.65,2.22,2.12,4.84,3.59,8.17,2.87,.83-.18,1.74,.02,2.61-.04,.95-.07,1.9-.23,2.84-.36-.7-.71-1.36-1.46-2.12-2.11ZM68.12,12.84c.01-.44,.38-.79,.83-.77l.53,.02c.44,.01,.79,.38,.77,.83l-.02,.53c-.01,.44-.38,.79-.83,.77l-.53-.02c-.44-.01-.79-.38-.77-.83l.02-.53Zm2.11,14.66c-.01,.44-.38,.79-.83,.77l-.53-.02c-.44-.01-.79-.38-.77-.83l.02-.53c.01-.44,.38-.79,.83-.77l.53,.02c.44,.01,.79,.38,.77,.83l-.02,.53Zm.02,6.5l-.02,.53c-.01,.44-.38,.79-.83,.77l-.53-.02c-.44-.01-.79-.38-.77-.83l.02-.53c.01-.44,.38-.79,.83-.77l.53,.02c.44,.01,.79,.38,.77,.83Zm-.02-13.53c-.01,.44-.38,.79-.83,.77l-.53-.02c-.44-.01-.79-.38-.77-.83l.02-.53c.01-.44,.38-.79,.83-.77l.53,.02c.44,.01,.79,.38,.77,.83l-.02,.53Zm-2.2-4.87c.01-.44,.38-.79,.83-.77l.53,.02c.44,.01,.79,.38,.77,.83l-.02,.53c-.01,.44-.38,.79-.83,.77l-.53-.02c-.44-.01-.79-.38-.77-.83l.02-.53Zm0,7.03c.01-.44,.38-.79,.83-.77l.53,.02c.44,.01,.79,.38,.77,.83l-.02,.53c-.01,.44-.38,.79-.83,.77l-.53-.02c-.44-.01-.79-.38-.77-.83l.02-.53Zm0,7.03c.01-.44,.38-.79,.83-.77l.53,.02c.44,.01,.79,.38,.77,.83l-.02,.53c-.01,.44-.38,.79-.83,.77l-.53-.02c-.44-.01-.79-.38-.77-.83l.02-.53Zm0,7.03c.01-.44,.38-.79,.83-.77l.53,.02c.44,.01,.79,.38,.77,.83l-.02,.53c-.01,.44-.38,.79-.83,.77l-.53-.02c-.44-.01-.79-.38-.77-.83l.02-.53Zm-2.65-23.94c.01-.44,.38-.79,.83-.77l.53,.02c.44,.01,.79,.38,.77,.83l-.02,.53c-.01,.44-.38,.79-.83,.77l-.53-.02c-.44-.01-.79-.38-.77-.83l.02-.53Zm2.11,14.66c-.01,.44-.38,.79-.83,.77l-.53-.02c-.44-.01-.79-.38-.77-.83l.02-.53c.01-.44,.38-.79,.83-.77l.53,.02c.44,.01,.79,.38,.77,.83l-.02,.53Zm.02,6.5l-.02,.53c-.01,.44-.38,.79-.83,.77l-.53-.02c-.44-.01-.79-.38-.77-.83l.02-.53c.01-.44,.38-.79,.83-.77l.53,.02c.44,.01,.79,.38,.77,.83Zm-.02-13.53c-.01,.44-.38,.79-.83,.77l-.53-.02c-.44-.01-.79-.38-.77-.83l.02-.53c.01-.44,.38-.79,.83-.77l.53,.02c.44,.01,.79,.38,.77,.83l-.02,.53Zm-2.2-4.87c.01-.44,.38-.79,.83-.77l.53,.02c.44,.01,.79,.38,.77,.83l-.02,.53c-.01,.44-.38,.79-.83,.77l-.53-.02c-.44-.01-.79-.38-.77-.83l.02-.53Zm0,7.03c.01-.44,.38-.79,.83-.77l.53,.02c.44,.01,.79,.38,.77,.83l-.02,.53c-.01,.44-.38,.79-.83,.77l-.53-.02c-.44-.01-.79-.38-.77-.83l.02-.53Zm0,7.03c.01-.44,.38-.79,.83-.77l.53,.02c.44,.01,.79,.38,.77,.83l-.02,.53c-.01,.44-.38,.79-.83,.77l-.53-.02c-.44-.01-.79-.38-.77-.83l.02-.53Zm0,7.03c.01-.44,.38-.79,.83-.77l.53,.02c.44,.01,.79,.38,.77,.83l-.02,.53c-.01,.44-.38,.79-.83,.77l-.53-.02c-.44-.01-.79-.38-.77-.83l.02-.53Zm-7.44,91.47c.07,2.47-.65,4.24-2.51,5.72-2.79,2.21-5.49,4.56-8.61,6.32-1.87,1.06-2.18,1.01-2.76-.93-.63-2.11-1.56-4.1-1.97-6.3-1.37-7.23-.36-14.51-.69-21.76-.04-.87,0-1.74,0-2.62,0-6.85,0-13.71,.01-20.56,0-.34,.15-.68,.23-1.02,.26,.17,.53,.35,.79,.52,4.19,2.72,7.2,6.69,10.78,10.06,1.62,1.52,3.68,2.95,4.5,4.86,.77,1.79,.16,4.17,.16,6.29,0,6.48-.13,12.96,.07,19.44Zm15.66-37.19c0,8.98-.01,17.95,.01,26.93,0,1.62-.12,2.73-1.98,3.7-2.61,1.36-4.76,3.59-7.13,5.41-.25,.2-.73,.35-.98,.24-.23-.1-.39-.59-.39-.91-.02-6.61-.02-13.22-.02-19.82,0-1.75-.2-3.52,.05-5.23,.39-2.63-.95-4.15-2.88-5.45-.59-.4-1.17-.79-1.74-1.21-1.07-.78-1.46-1.76-1.46-3.15,.06-14.59,.03-29.18,.05-43.76,0-.43,.25-.85,.38-1.28,.26,.26,.53,.53,.79,.79,1.32,1.32,2.61,2.68,3.97,3.96,3.31,3.11,6.63,6.21,10.02,9.24,1.01,.91,1.34,1.87,1.33,3.22-.06,9.1-.03,18.2-.03,27.31Zm8.21,28.84c0,.44,.3,1.64-.42,1.23-.54-.31-1.96,.03-1.81-1.33,.03-.25,0-.5,0-.75,0-12.32,.01-24.64-.03-36.96,0-1.08,.12-2,1.1-2.51,.26-.13,1.05,.15,1.12,.39,.17,.57,.05,1.23,.05,1.85v18.67c0,6.47,.01,12.94-.03,19.41Zm2.25,2.61c-.02,.15-.38,.39-.55,.37-.32-.05-.76-.18-.89-.41-.15-.29-.04-.73-.04-1.1v-42.63c0-.37-.06-.76,.03-1.12,.04-.17,.38-.39,.55-.37,.32,.05,.85,.21,.88,.4,.12,.6,.04,1.24,.04,1.86v41.13c0,.62,.04,1.25-.03,1.87Zm3,2.24c-.02,.15-.37,.39-.54,.37-.32-.04-.83-.19-.89-.4-.14-.46-.04-.98-.04-1.48v-45.97c0-.62-.13-1.28,.04-1.86,.12-.42,.64-.73,.98-1.09,.16,.36,.46,.73,.46,1.09,.03,8.1,.02,16.2,.02,24.29v23.17c0,.62,.04,1.25-.03,1.87Zm2.98,2.2c-.12,.24-.56,.37-.88,.42-.17,.02-.54-.22-.55-.36-.06-.74-.03-1.49-.03-2.24v-50.87c0-.75-.06-1.5,.04-2.24,.02-.18,.56-.36,.88-.4,.17-.02,.51,.2,.55,.37,.09,.35,.03,.74,.03,1.12v53.11c0,.37,.12,.81-.04,1.1Zm2.99-31.44c-.13,.42-.64,.72-.98,1.08-.16-.36-.45-.73-.46-1.09-.03-8.2-.02-16.4-.02-24.61,0-.5-.13-1.05,.04-1.48,.17-.42,.64-.73,.98-1.08,.16,.36,.45,.73,.46,1.09,.03,4.22,.02,8.45,.02,12.68v11.56c0,.62,.13,1.28-.04,1.85Zm2.26-1.42c-.3,.17-.68,.38-.96,.31-.22-.06-.48-.51-.49-.8-.04-2.11-.02-4.22-.02-6.33,0-6.08,0-12.17,.01-18.25,0-.71-.03-1.51,.27-2.12,.31-.63,1.01-1.08,1.53-1.6,.15,.64,.41,1.28,.42,1.93,.04,4.1,.02,8.19,.02,12.29s0,8.19,0,12.29c0,.87,.14,1.76-.79,2.28Zm16.45,34.32c-.12,3.99-1.11,7.87-2.94,11.49-.5,1-1.31,1.33-2.11,.72-2.29-1.73-4.54-3.52-6.8-5.28-.1-.08-.17-.19-.27-.26-1.13-.88-2.75-1.55-3.27-2.7-.6-1.36-.28-3.14-.28-4.74-.02-7.98,.02-15.97-.04-23.95-.01-1.45,.28-2.52,1.42-3.56,4.55-4.16,8.99-8.44,13.48-12.67,.17-.16,.35-.29,.53-.44,.11,.33,.3,.65,.31,.99,.04,1.12,.02,2.24,.02,3.37v17.59c0,6.49,.15,12.98-.05,19.46Z"/>
    <path class="cls-1" d="M17.17,166.9c-1.12,0-2.24,.04-3.36-.02-.58-.03-1.14-.23-1.71-.36,.44-.44,.84-.94,1.33-1.31,6.32-4.85,12.65-9.7,19.01-14.5,.92-.7,2.08-1.76,2.96-1.62,.85,.14,1.53,1.59,2.2,2.52,1.25,1.73,.97,2.8-.81,4.08-2.5,1.8-4.96,3.68-7.41,5.55-2.27,1.74-4.51,3.53-6.79,5.25-.35,.26-.87,.38-1.32,.4-1.37,.05-2.74,.02-4.11,.02Z"/>
    <g>
      <rect class="cls-1" x="70.52" y="139.17" width="5.23" height="5.23" rx=".8" ry=".8"/>
      <rect class="cls-1" x="77.25" y="139.17" width="5.23" height="5.23" rx=".8" ry=".8"/>
      <rect class="cls-1" x="77.25" y="145.96" width="5.23" height="5.23" rx=".8" ry=".8"/>
      <rect class="cls-1" x="70.52" y="145.96" width="5.23" height="5.23" rx=".8" ry=".8"/>
    </g>
    <g>
      <g>
        <rect class="cls-1" x="58.5" y="83.71" width="2.84" height="2.84" rx=".8" ry=".8" transform="translate(2.84 -1.93) rotate(1.89)"/>
        <rect class="cls-1" x="62.15" y="83.83" width="2.84" height="2.84" rx=".8" ry=".8" transform="translate(2.85 -2.05) rotate(1.89)"/>
        <rect class="cls-1" x="62.03" y="87.52" width="2.84" height="2.84" rx=".8" ry=".8" transform="translate(2.97 -2.04) rotate(1.89)"/>
        <rect class="cls-1" x="58.38" y="87.4" width="2.84" height="2.84" rx=".8" ry=".8" transform="translate(2.96 -1.92) rotate(1.89)"/>
      </g>
      <g>
        <rect class="cls-1" x="58.5" y="74.35" width="2.84" height="2.84" rx=".8" ry=".8" transform="translate(2.53 -1.93) rotate(1.89)"/>
        <rect class="cls-1" x="62.15" y="74.47" width="2.84" height="2.84" rx=".8" ry=".8" transform="translate(2.54 -2.05) rotate(1.89)"/>
        <rect class="cls-1" x="62.03" y="78.15" width="2.84" height="2.84" rx=".8" ry=".8" transform="translate(2.66 -2.05) rotate(1.89)"/>
        <rect class="cls-1" x="58.38" y="78.03" width="2.84" height="2.84" rx=".8" ry=".8" transform="translate(2.65 -1.93) rotate(1.89)"/>
      </g>
      <g>
        <rect class="cls-1" x="58.5" y="64.98" width="2.84" height="2.84" rx=".8" ry=".8" transform="translate(2.22 -1.94) rotate(1.89)"/>
        <rect class="cls-1" x="62.15" y="65.1" width="2.84" height="2.84" rx=".8" ry=".8" transform="translate(2.23 -2.06) rotate(1.89)"/>
        <rect class="cls-1" x="62.03" y="68.78" width="2.84" height="2.84" rx=".8" ry=".8" transform="translate(2.35 -2.05) rotate(1.89)"/>
        <rect class="cls-1" x="58.38" y="68.66" width="2.84" height="2.84" rx=".8" ry=".8" transform="translate(2.34 -1.93) rotate(1.89)"/>
      </g>
      <g>
        <rect class="cls-1" x="58.5" y="55.61" width="2.84" height="2.84" rx=".8" ry=".8" transform="translate(1.91 -1.94) rotate(1.89)"/>
        <rect class="cls-1" x="62.15" y="55.73" width="2.84" height="2.84" rx=".8" ry=".8" transform="translate(1.92 -2.06) rotate(1.89)"/>
        <rect class="cls-1" x="62.03" y="59.41" width="2.84" height="2.84" rx=".8" ry=".8" transform="translate(2.04 -2.06) rotate(1.89)"/>
        <rect class="cls-1" x="58.38" y="59.29" width="2.84" height="2.84" rx=".8" ry=".8" transform="translate(2.03 -1.94) rotate(1.89)"/>
      </g>
    </g>
  </g>
  <g>
    <g>
      <path class="cls-2" d="M6.66,203.86c-1.42,0-2.55-.1-3.4-.29-.6-.15-1.11-.36-1.53-.64s-.75-.64-1-1.1c-.25-.46-.44-1.01-.55-1.66-.11-.65-.17-1.41-.17-2.28v-13.21H6.58v11.62c0,.7,.2,1.1,.61,1.2h5.77v-6.92c0-.9,.06-1.68,.2-2.34,.13-.66,.34-1.22,.62-1.68,.29-.46,.65-.82,1.09-1.08s.98-.45,1.62-.56c.2-.03,.53-.06,1.02-.1,.48-.03,1.26-.06,2.32-.08,1.07-.03,2.49-.04,4.27-.05,1.78,0,4.05-.01,6.83-.01v12.82h1.86v6.36h-8.49v-12.87h-1.25c-.23,0-.51,0-.84,.01-.33,0-.67,.02-.99,.02-.33,0-.62,.02-.87,.02-.25,0-.4,.02-.45,.04-.2,.05-.29,.43-.29,1.15v11.62H6.66Zm4.92,7.46H4.94v-5.65h6.63v5.65Zm8,0h-6.63v-5.65h6.63v5.65Z"/>
      <path class="cls-2" d="M32.45,197.5h5.7v6.36h-5.7v-6.36Z"/>
      <path class="cls-2" d="M37.81,197.5h5.7v6.36h-5.7v-6.36Z"/>
      <path class="cls-2" d="M68.42,195.3c0-.73-.2-1.24-.61-1.52-.2-.13-.65-.2-1.37-.2h-20.9v-6.39h.02l15.98-10.33,1.81,4.72-8.74,5.6h13.75c.69,0,1.28,.02,1.8,.06,.51,.04,.96,.1,1.33,.18,.64,.11,1.18,.3,1.63,.56,.45,.26,.82,.62,1.1,1.08,.29,.46,.49,1.02,.62,1.68,.13,.66,.2,1.44,.2,2.34v10.77h-31.91v-6.36l25.28,.02v-2.23Z"/>
      <path class="cls-2" d="M76.89,203.86v-6.36h2.1v-18.45h6.63v18.45h3.72c.41-.1,.61-.5,.61-1.2v-17.3h6.58v18.5h2.01v6.36h-21.66Z"/>
      <path class="cls-2" d="M98.17,197.5h5.7v6.36h-5.7v-6.36Z"/>
      <path class="cls-2" d="M103.53,197.5h5.7v6.36h-5.7v-6.36Z"/>
      <path class="cls-2" d="M108.89,197.5h5.7v6.36h-5.7v-6.36Z"/>
      <path class="cls-2" d="M114.25,197.5h5.7v6.36h-5.7v-6.36Z"/>
      <path class="cls-2" d="M131.8,203.86c-1.92,0-3.15-.63-3.67-1.88-.33,.91-1.17,1.49-2.54,1.74-.23,.06-.59,.11-1.09,.12s-1.14,.02-1.92,.02h-2.84v-6.31c.13,0,.32,0,.56-.01,.25,0,.49-.02,.72-.03,.24,0,.44-.02,.62-.02,.18,0,.28-.02,.29-.04,.46-.15,.69-.55,.69-1.2v-5.68c0-1.78,.27-3.11,.82-3.99,.55-.88,1.44-1.43,2.68-1.66,.38-.08,.83-.14,1.36-.18,.53-.04,1.14-.06,1.82-.06h7.81c.6,0,1.15,.02,1.64,.06,.49,.04,.94,.1,1.35,.18,.65,.12,1.21,.3,1.68,.56s.84,.62,1.14,1.06c.29,.45,.51,1,.65,1.66,.14,.66,.21,1.45,.21,2.36v7.37c0,.91-.06,1.7-.2,2.35-.13,.65-.34,1.21-.62,1.66-.29,.46-.65,.82-1.09,1.09-.44,.27-.98,.48-1.61,.62-.36,.08-.8,.13-1.32,.16-.52,.02-1.13,.04-1.81,.04h-5.31Zm-2.57-7.56c0,.69,.21,1.1,.64,1.25h5.36c.54,0,.96-.03,1.27-.09,.31-.06,.49-.15,.54-.28,.06-.13,.1-.41,.1-.83v-4.11c0-.69-.2-1.1-.59-1.25h-6.34c-.65,.05-.98,.46-.98,1.25v4.06Z"/>
      <path class="cls-2" d="M152.94,175.06c0,.59-.08,1.02-.24,1.3-.16,.28-.45,.46-.86,.54-.23,.03-.56,.05-1,.05h-4.55v-1.98h4.31c.18-.02,.27-.15,.27-.39s0-.39-.02-.44c-.03-.08-.12-.12-.27-.12h-2.28c-.47,0-.9-.11-1.27-.34-.49-.28-.73-.71-.73-1.3v-1.39c0-.59,.08-1.02,.24-1.29,.16-.27,.44-.44,.83-.53,.28-.05,.62-.07,1.03-.07h3.84v2.01h-3.6c-.18,0-.27,.12-.27,.37,0,.31,.04,.49,.12,.54,.03,.02,.2,.02,.49,.02h2.15c.49,0,.9,.14,1.22,.42,.39,.33,.59,.82,.59,1.47v1.15Zm-.02,28.8h-6.63v-24.81h6.63v24.81Z"/>
    </g>
    <g>
      <path class="cls-2" d="M29.77,217.42v1.19h-4.36c-.39,0-.75-.07-1.07-.22s-.6-.34-.82-.57c-.22-.23-.4-.5-.52-.81-.12-.3-.18-.61-.18-.92v-.82c0-.31,.06-.62,.18-.92,.12-.3,.3-.57,.52-.81,.22-.24,.49-.43,.81-.58s.68-.22,1.08-.22c.35,0,.69,.07,1,.2,.31,.13,.59,.31,.83,.53,.24,.22,.43,.49,.56,.79,.14,.31,.21,.64,.21,1v2.14h1.76Zm-5.55-5.34c-.14,0-.23-.04-.29-.11-.05-.07-.08-.15-.08-.22v-.66c0-.06,.02-.13,.07-.22,.05-.08,.15-.13,.3-.13h.56c.15,0,.25,.04,.3,.13,.05,.08,.07,.16,.07,.22v.66c0,.08-.03,.15-.08,.22-.05,.07-.15,.11-.29,.11h-.56Zm-.14,4.02c0,.17,.03,.33,.1,.5,.07,.16,.16,.3,.28,.43s.26,.22,.42,.29c.16,.07,.33,.11,.52,.11h1.34v-2.14c0-.18-.03-.34-.1-.5-.07-.16-.16-.3-.28-.41-.12-.12-.26-.21-.43-.29s-.34-.11-.54-.11-.37,.04-.53,.11-.3,.17-.42,.29c-.12,.12-.21,.26-.28,.42-.07,.16-.1,.32-.1,.49v.82Zm1.65-4.02c-.13,0-.23-.03-.29-.1s-.09-.14-.09-.24v-.66c0-.08,.03-.15,.09-.23,.06-.08,.16-.12,.29-.12h.55c.13,0,.23,.04,.29,.12,.06,.08,.09,.15,.09,.23v.66c0,.09-.03,.17-.1,.24-.06,.07-.16,.1-.28,.1h-.55Z"/>
      <path class="cls-2" d="M32.81,217.02c0,.21-.03,.41-.1,.6-.07,.19-.17,.36-.31,.51s-.31,.26-.51,.35c-.21,.09-.45,.13-.73,.13h-1.97v-1.19h1.98c.14,0,.23-.03,.29-.09s.08-.16,.08-.32v-3.68c0-.07,.02-.15,.07-.23,.05-.08,.15-.13,.3-.13h.53c.15,0,.25,.04,.3,.13,.05,.08,.07,.16,.07,.23v3.68Zm-2.35,2.23c.13,0,.23,.04,.29,.12s.09,.16,.09,.24v.63c0,.08-.03,.16-.09,.24-.06,.07-.16,.11-.29,.11h-.55c-.15,0-.25-.04-.3-.13-.05-.08-.07-.16-.07-.22v-.63c0-.07,.02-.15,.07-.23,.05-.08,.15-.13,.3-.13h.55Zm1.8,0c.15,0,.26,.04,.31,.13,.05,.08,.07,.16,.07,.23v.63c0,.06-.02,.13-.07,.22-.05,.08-.15,.13-.31,.13h-.55c-.15,0-.25-.04-.3-.13-.05-.08-.08-.16-.08-.22v-.63c0-.07,.02-.15,.08-.23,.05-.08,.15-.13,.3-.13h.55Z"/>
      <path class="cls-2" d="M36.07,212.99c.14,0,.23,.04,.29,.11,.05,.07,.08,.15,.08,.24v5.49c0,.28-.04,.55-.13,.8-.08,.25-.21,.47-.39,.66-.18,.19-.4,.34-.66,.44-.26,.11-.58,.16-.95,.16h-.56c-.14,0-.23-.04-.29-.11-.05-.07-.08-.15-.08-.22v-.52c0-.08,.03-.16,.08-.23s.15-.1,.29-.1h.56c.33,0,.56-.07,.68-.21,.12-.14,.18-.36,.18-.66v-5.49c0-.08,.03-.16,.09-.24,.06-.07,.15-.11,.28-.11h.53Z"/>
      <path class="cls-2" d="M40.7,218.61h-.76c-.28,0-.52-.04-.73-.13-.21-.08-.38-.2-.51-.34-.13-.15-.24-.32-.31-.51-.07-.19-.1-.4-.1-.61v-6.37c0-.06,.02-.13,.07-.22,.05-.08,.15-.13,.3-.13h.53c.15,0,.25,.04,.3,.13,.05,.08,.07,.16,.07,.22v6.37c0,.19,.04,.31,.13,.35,.08,.04,.21,.06,.38,.06h.63v1.19Z"/>
      <path class="cls-2" d="M49.16,217.42v1.19h-8.75v-1.19h2.25c-.26-.4-.39-.84-.39-1.32v-.82c0-.31,.06-.62,.18-.92,.12-.3,.3-.57,.52-.8,.23-.23,.5-.42,.82-.57,.32-.15,.68-.22,1.08-.22,.35,0,.68,.07,.99,.2,.31,.13,.59,.31,.83,.53,.24,.22,.43,.49,.57,.79s.21,.64,.21,.99v2.14h1.69Zm-5.65-5.34c-.14,0-.23-.04-.29-.11-.05-.07-.08-.15-.08-.22v-.66c0-.06,.02-.13,.07-.22,.05-.08,.15-.13,.3-.13h.56c.15,0,.25,.04,.3,.13,.05,.08,.07,.16,.07,.22v.66c0,.08-.03,.15-.08,.22-.05,.07-.15,.11-.29,.11h-.56Zm.03,3.2v.82c0,.17,.03,.33,.1,.5s.16,.3,.28,.43c.12,.12,.26,.22,.42,.29,.16,.07,.33,.11,.52,.11h1.32v-2.14c0-.17-.03-.33-.1-.49-.07-.16-.16-.3-.28-.42-.12-.12-.26-.22-.42-.29s-.34-.11-.53-.11-.36,.04-.52,.11-.3,.17-.42,.29c-.12,.12-.21,.26-.28,.42s-.1,.32-.1,.49Zm1.77-3.2c-.13,0-.23-.03-.29-.1-.06-.07-.09-.14-.09-.24v-.66c0-.08,.03-.15,.09-.23,.06-.08,.16-.12,.29-.12h.54c.13,0,.23,.04,.29,.12,.06,.08,.09,.15,.09,.23v.66c0,.09-.03,.17-.1,.24-.07,.07-.16,.1-.28,.1h-.54Z"/>
      <path class="cls-2" d="M56.91,217.42v1.19h-8.14v-1.19h2.5l-.98-2.03s-.03-.1-.05-.17v-.13s0-.09,.02-.15c0-.03,0-.07,.02-.12,.07-.29,.19-.56,.37-.82,.18-.25,.39-.47,.64-.66,.25-.18,.51-.33,.8-.44,.29-.11,.58-.16,.88-.16,.36,0,.7,.07,1.02,.2,.32,.13,.61,.31,.86,.52s.45,.47,.6,.75c.15,.28,.24,.58,.26,.88v.05c0,.09-.02,.17-.05,.24l-.98,2.03h2.21Zm-5.37-2.35l1.12,2.35h.66l1.12-2.36c-.03-.15-.09-.3-.18-.43-.09-.13-.2-.25-.33-.35s-.28-.18-.44-.24-.33-.09-.5-.09-.32,.03-.48,.09c-.16,.06-.3,.14-.43,.25-.13,.1-.24,.22-.33,.35-.1,.13-.16,.27-.2,.42Z"/>
      <path class="cls-2" d="M59.38,210.31c.15,0,.25,.04,.3,.13,.05,.08,.07,.16,.07,.22v6.37c0,.21-.03,.41-.1,.6-.07,.19-.17,.36-.31,.51s-.31,.26-.51,.35c-.21,.09-.45,.13-.73,.13h-1.53v-1.19h1.53c.14,0,.24-.03,.29-.09,.06-.06,.09-.16,.09-.32v-6.37c0-.06,.02-.13,.07-.22,.05-.08,.15-.13,.3-.13h.53Z"/>
      <path class="cls-2" d="M62.86,218.27c0,.06-.02,.13-.07,.21-.05,.08-.14,.12-.29,.12h-.54c-.14,0-.23-.04-.29-.11s-.08-.15-.08-.22v-7.63c0-.08,.03-.15,.08-.22,.05-.07,.15-.11,.29-.11h.54c.15,0,.24,.04,.29,.12,.05,.08,.07,.15,.07,.21v7.63Z"/>
      <path class="cls-2" d="M72.71,217.42c.15,0,.25-.03,.3-.09s.08-.16,.08-.32v-6.37c0-.06,.02-.13,.07-.22,.05-.08,.15-.13,.31-.13h.52c.14,0,.24,.04,.3,.12,.06,.08,.09,.15,.09,.23v6.37c0,.21-.03,.41-.1,.6-.07,.19-.17,.36-.31,.51s-.31,.26-.52,.35c-.21,.09-.45,.13-.73,.13h-3.79c-.41,0-.77-.08-1.1-.22-.33-.15-.6-.35-.83-.59-.23-.24-.41-.52-.53-.82-.12-.31-.18-.62-.18-.93,0-.22,.03-.45,.09-.68,.06-.23,.15-.45,.28-.66,.12-.21,.28-.4,.46-.58s.4-.32,.63-.44c.02-.02,.05-.03,.07-.04,.03-.01,.06-.03,.09-.04,.03-.01,.07-.03,.11-.04,.04-.01,.09-.02,.16-.02,.08,0,.15,.02,.21,.06,.05,.04,.09,.08,.12,.13,.02,.02,.03,.05,.06,.1,.02,.05,.05,.11,.09,.17,.02,.03,.03,.06,.04,.09,.01,.03,.02,.05,.04,.08,.04,.09,.06,.15,.06,.16,0,.05-.02,.11-.05,.16-.03,.05-.08,.1-.15,.14l-.23,.13c-.25,.13-.45,.31-.59,.54-.14,.23-.21,.47-.21,.74,0,.18,.03,.35,.1,.52,.07,.17,.17,.32,.29,.44,.12,.13,.27,.23,.44,.31,.17,.08,.35,.12,.55,.12h3.78Zm-1.99-4.57c-.11,0-.2,.04-.29,.13-.08,.08-.13,.18-.13,.29v.67h1.17c.08,0,.11,.04,.11,.1v.25c0,.07-.04,.1-.11,.1h-1.95c-.08,0-.12-.03-.12-.1v-.25c0-.07,.04-.1,.12-.1h.31v-.67c0-.24,.09-.44,.26-.62s.38-.26,.62-.26c.38,0,.64,.18,.78,.53l.05,.12s0,.08-.01,.1c-.02,.02-.03,.04-.05,.05l-.22,.09h-.03c-.05,0-.09-.02-.11-.06l-.05-.11c-.07-.17-.19-.25-.36-.25Z"/>
      <path class="cls-2" d="M82.95,218.61h-.61c-.25,0-.5-.04-.73-.12-.23-.08-.43-.2-.6-.36-.21,.18-.44,.3-.69,.37s-.52,.11-.81,.11h-3.33c-.14,0-.23-.04-.29-.11s-.08-.15-.08-.22v-.52c0-.08,.03-.16,.08-.23s.15-.1,.29-.1h3.33c.33,0,.56-.07,.68-.21,.12-.14,.18-.36,.18-.66v-5.9c0-.06,.02-.13,.07-.22,.05-.08,.15-.13,.3-.13h.53c.15,0,.25,.04,.3,.13,.05,.08,.07,.16,.07,.22v6.36c0,.12,.03,.21,.08,.26,.05,.05,.12,.09,.21,.11,.05,.01,.11,.02,.17,.03,.06,0,.13,0,.2,.02h.64v1.19Zm-4.51-7.43c.15,0,.25,.04,.31,.13,.05,.08,.07,.16,.07,.22v5.03c0,.08-.03,.16-.09,.24-.06,.07-.16,.11-.29,.11h-.53c-.13,0-.22-.04-.28-.11-.06-.07-.09-.15-.09-.24v-5.03c0-.06,.02-.13,.07-.22,.05-.08,.15-.13,.29-.13h.53Z"/>
      <path class="cls-2" d="M89.71,215.28v.82c0,.31-.06,.61-.18,.92-.12,.3-.3,.57-.52,.81-.23,.23-.5,.42-.82,.57-.32,.15-.68,.22-1.08,.22h-4.43v-1.19h1.84v-2.14c0-.35,.07-.68,.21-.99s.33-.57,.56-.79c.24-.22,.51-.4,.83-.53,.31-.13,.65-.2,.99-.2,.4,0,.76,.07,1.08,.22,.32,.15,.6,.34,.82,.57,.23,.23,.4,.5,.52,.8,.12,.3,.18,.61,.18,.92Zm-2.61,2.14c.19,0,.37-.04,.53-.11,.16-.07,.3-.17,.42-.29,.12-.12,.21-.26,.28-.43,.07-.16,.1-.33,.1-.5v-.82c0-.17-.03-.33-.1-.49-.07-.16-.16-.3-.28-.42-.12-.12-.26-.22-.42-.29s-.34-.11-.53-.11-.36,.04-.52,.11-.3,.17-.42,.29c-.12,.12-.21,.26-.28,.42-.07,.16-.1,.32-.1,.49v2.14h1.31Z"/>
      <path class="cls-2" d="M96.63,210.31c.15,0,.25,.05,.29,.14,.04,.09,.06,.16,.06,.21v5.9c0,.28-.04,.55-.13,.8-.08,.25-.21,.47-.39,.66-.18,.19-.4,.34-.66,.44-.27,.11-.58,.16-.95,.16h-3.33c-.15,0-.25-.04-.3-.13-.05-.08-.07-.16-.07-.22v-.51c0-.08,.03-.16,.08-.23s.15-.1,.29-.1h3.33c.33,0,.56-.07,.68-.21,.12-.14,.18-.36,.18-.66v-5.9c0-.06,.02-.13,.07-.22,.05-.08,.15-.13,.3-.13h.54Zm-2.94-1.36c-.11,0-.2,.04-.28,.12-.08,.08-.12,.17-.12,.28v.67h1.17c.07,0,.1,.04,.1,.12v.24c0,.07-.03,.1-.1,.1h-1.97c-.06,0-.09-.03-.09-.1v-.24c0-.08,.03-.12,.09-.12h.33v-.67c0-.24,.08-.44,.25-.61s.37-.25,.6-.25c.39,0,.66,.18,.81,.53l.03,.1s.02,.08,0,.09c-.01,.01-.03,.03-.05,.05l-.23,.1h-.05s-.05,0-.06-.02c0-.01-.02-.02-.03-.04l-.05-.12c-.07-.16-.2-.24-.38-.24Zm.08,2.23c.14,0,.24,.04,.29,.11,.06,.07,.09,.15,.09,.24v5.02c0,.07-.02,.15-.07,.23-.05,.08-.15,.13-.31,.13h-.53c-.15,0-.24-.04-.29-.13-.05-.08-.07-.16-.07-.23v-5.02c0-.08,.03-.16,.09-.24,.06-.07,.15-.11,.28-.11h.53Z"/>
      <path class="cls-2" d="M100.11,218.27c0,.06-.02,.13-.07,.21-.05,.08-.14,.12-.29,.12h-.54c-.14,0-.23-.04-.29-.11s-.08-.15-.08-.22v-7.63c0-.08,.03-.15,.08-.22,.05-.07,.15-.11,.29-.11h.54c.15,0,.24,.04,.29,.12,.05,.08,.07,.15,.07,.21v7.63Z"/>
      <path class="cls-2" d="M108.72,215.28v.82c0,.31-.06,.61-.18,.92-.12,.3-.3,.57-.52,.81-.23,.23-.5,.42-.82,.57-.32,.15-.68,.22-1.08,.22s-.75-.07-1.07-.22-.6-.34-.82-.57c-.22-.23-.4-.5-.52-.81-.12-.3-.18-.61-.18-.92v-.82c0-.31,.06-.61,.18-.91,.12-.3,.3-.57,.52-.81,.22-.24,.5-.43,.82-.58,.32-.15,.68-.22,1.07-.22s.76,.07,1.08,.22c.32,.15,.59,.34,.82,.58,.23,.24,.4,.51,.52,.81,.12,.3,.18,.6,.18,.91Zm-1.27,.82v-.82c0-.17-.03-.33-.1-.49-.07-.16-.16-.3-.28-.42-.12-.12-.26-.22-.42-.29s-.34-.11-.53-.11-.36,.04-.52,.11-.3,.17-.42,.29c-.12,.12-.21,.26-.28,.42-.07,.16-.1,.32-.1,.49v.82c0,.17,.03,.33,.1,.5,.07,.16,.16,.3,.28,.43s.26,.22,.42,.29c.16,.07,.33,.11,.52,.11s.37-.04,.53-.11c.16-.07,.3-.17,.42-.29s.21-.26,.28-.43c.07-.16,.1-.33,.1-.5Z"/>
      <path class="cls-2" d="M111.98,212.99c.14,0,.23,.04,.29,.11,.05,.07,.08,.15,.08,.24v5.49c0,.28-.04,.55-.13,.8-.08,.25-.21,.47-.39,.66-.18,.19-.4,.34-.66,.44-.26,.11-.58,.16-.95,.16h-.56c-.14,0-.23-.04-.29-.11-.05-.07-.08-.15-.08-.22v-.52c0-.08,.03-.16,.08-.23s.15-.1,.29-.1h.56c.33,0,.56-.07,.68-.21,.12-.14,.18-.36,.18-.66v-5.49c0-.08,.03-.16,.09-.24,.06-.07,.15-.11,.28-.11h.53Z"/>
      <path class="cls-2" d="M115.47,218.27c0,.06-.02,.13-.07,.21-.05,.08-.14,.12-.29,.12h-.54c-.14,0-.23-.04-.29-.11s-.08-.15-.08-.22v-7.63c0-.08,.03-.15,.08-.22,.05-.07,.15-.11,.29-.11h.54c.15,0,.24,.04,.29,.12,.05,.08,.07,.15,.07,.21v7.63Z"/>
      <path class="cls-2" d="M120.58,214.93c0-.25-.09-.48-.28-.67-.19-.2-.42-.29-.71-.29-.22,0-.41,.02-.57,.05-.16,.03-.32,.12-.5,.26-.03,.02-.07,.04-.13,.06s-.12,.04-.18,.04c-.04,0-.07,0-.1-.02-.03-.01-.05-.03-.07-.04-.05-.04-.1-.08-.13-.12-.03-.04-.07-.08-.11-.13-.02-.04-.07-.11-.14-.2-.07-.1-.1-.16-.1-.2,0-.08,.01-.16,.04-.22s.08-.11,.16-.15c.03-.02,.06-.04,.09-.06s.06-.03,.08-.05c.26-.17,.53-.29,.79-.35s.56-.1,.88-.1c.35,0,.66,.06,.94,.19,.28,.13,.52,.29,.71,.5s.35,.44,.45,.7c.1,.26,.16,.52,.16,.79v1.76c0,.6-.18,1.07-.54,1.4-.36,.34-.89,.51-1.6,.51h-2.41c-.14,0-.23-.04-.29-.11s-.08-.15-.08-.22v-.52c0-.08,.03-.16,.08-.23s.15-.1,.29-.1h2.41c.35,0,.58-.05,.7-.14,.12-.1,.18-.29,.18-.58v-1.76Z"/>
      <path class="cls-2" d="M124.64,219.61c-.11,0-.2,.04-.28,.12-.08,.08-.12,.17-.12,.28v.67h1.17c.07,0,.1,.04,.1,.1v.25c0,.07-.03,.1-.1,.1h-1.96c-.07,0-.1-.04-.1-.1v-.25c0-.07,.03-.1,.1-.1h.32v-.67c0-.24,.08-.44,.25-.61,.17-.17,.37-.25,.61-.25,.38,0,.65,.18,.79,.53l.05,.1c0,.08-.01,.13-.06,.15l-.23,.09h-.03c-.05,0-.09-.02-.1-.06l-.05-.12c-.08-.16-.2-.24-.37-.24Zm-.32-1c-.15,0-.24-.04-.29-.13-.05-.08-.08-.16-.08-.22v-7.61c0-.06,.02-.13,.08-.22,.05-.08,.15-.13,.29-.13h.53c.15,0,.24,.04,.29,.13,.05,.08,.07,.16,.07,.22v7.61c0,.06-.02,.13-.07,.22-.05,.08-.15,.13-.29,.13h-.53Z"/>
      <path class="cls-2" d="M129.04,219.16c0-.21,.04-.42,.13-.62s.21-.39,.36-.56c.16-.16,.35-.3,.57-.4,.22-.1,.47-.16,.75-.16h.17v-2.14c0-.36,.07-.69,.21-1,.14-.3,.33-.57,.56-.79,.24-.23,.51-.4,.83-.53,.31-.13,.65-.19,1-.19,.39,0,.75,.07,1.07,.22,.32,.15,.59,.34,.82,.58,.22,.24,.4,.51,.52,.81,.12,.3,.18,.6,.18,.91v.82c0,.35-.07,.68-.21,.98-.14,.3-.33,.57-.56,.79-.23,.23-.51,.41-.82,.54-.31,.13-.65,.2-.99,.2h-2.77c-.15,0-.27,.05-.38,.16s-.16,.24-.16,.39v1.46c0,.09-.03,.17-.1,.24-.07,.07-.16,.1-.28,.1h-.52c-.14,0-.23-.04-.29-.11-.05-.07-.08-.15-.08-.24v-1.46Zm4.58-1.74c.19,0,.37-.04,.53-.11,.16-.07,.3-.17,.41-.29,.12-.12,.21-.26,.27-.43,.06-.16,.1-.33,.1-.5v-.82c0-.17-.03-.33-.1-.49-.07-.16-.16-.3-.27-.42-.11-.12-.25-.22-.41-.29-.16-.07-.34-.11-.53-.11s-.37,.04-.54,.11c-.17,.07-.31,.17-.43,.29-.12,.12-.21,.26-.28,.41s-.1,.32-.1,.5v2.14h1.34Z"/>
      <path class="cls-2" d="M140.47,218.61h-.76c-.28,0-.52-.04-.73-.13-.21-.08-.38-.2-.51-.34-.13-.15-.24-.32-.31-.51-.07-.19-.1-.4-.1-.61v-6.37c0-.06,.02-.13,.07-.22,.05-.08,.15-.13,.3-.13h.53c.15,0,.25,.04,.3,.13,.05,.08,.07,.16,.07,.22v6.37c0,.19,.04,.31,.13,.35,.08,.04,.21,.06,.38,.06h.63v1.19Z"/>
      <path class="cls-2" d="M149.71,218.61h-.61c-.25,0-.48-.04-.71-.12-.23-.08-.43-.2-.61-.36-.21,.18-.44,.3-.7,.37-.26,.07-.52,.11-.8,.11h-6.09v-1.19h1.76v-6.78c0-.09,.03-.17,.1-.24,.07-.07,.16-.1,.28-.1h.53c.14,0,.23,.04,.29,.11,.05,.07,.08,.15,.08,.22v3.37c.18-.15,.37-.29,.58-.44,.21-.15,.43-.28,.66-.4,.23-.12,.47-.22,.71-.29,.24-.08,.49-.12,.73-.12,.45,0,.84,.08,1.16,.25s.58,.38,.78,.64c.2,.26,.35,.55,.44,.88,.09,.32,.14,.65,.14,.97v1.51c0,.12,.02,.21,.08,.26,.05,.05,.12,.09,.2,.11,.05,.01,.1,.02,.16,.03s.13,0,.2,.02h.63l.02,1.19Zm-3.43-1.19c.32,0,.55-.07,.67-.21,.13-.14,.19-.36,.19-.66v-1.05c0-.21-.02-.4-.07-.59-.05-.18-.12-.35-.22-.48-.1-.14-.23-.25-.39-.33-.16-.08-.35-.13-.57-.13-.21,0-.44,.06-.69,.17s-.5,.25-.75,.41-.48,.35-.69,.54c-.21,.2-.4,.38-.54,.55v1.79h3.05Zm-1.09-5.34c-.12,0-.22-.03-.28-.1-.07-.07-.1-.14-.1-.24v-.66c0-.08,.03-.15,.09-.23,.06-.08,.16-.12,.29-.12h.55c.14,0,.24,.04,.29,.12,.06,.08,.09,.15,.09,.23v.66c0,.09-.03,.17-.1,.24s-.16,.1-.28,.1h-.55Z"/>
      <path class="cls-2" d="M151.35,217.42c.13,0,.22-.03,.28-.09s.08-.16,.08-.32v-3.68c0-.08,.03-.17,.09-.24,.06-.08,.16-.12,.29-.12h.52c.14,0,.24,.04,.29,.12,.06,.08,.09,.16,.09,.24v3.68c0,.21-.03,.42-.1,.61-.07,.19-.17,.36-.31,.51-.14,.15-.31,.26-.52,.34-.21,.08-.45,.13-.73,.13h-1.91v-1.19h1.93Zm1.27-6.68c.14,0,.24,.04,.29,.12,.06,.08,.09,.15,.09,.23v.66c0,.09-.03,.17-.1,.24-.07,.07-.16,.1-.28,.1h-.55c-.14,0-.23-.04-.29-.11-.05-.07-.08-.15-.08-.22v-.66c0-.06,.02-.13,.07-.22,.05-.08,.15-.13,.3-.13h.55Z"/>
    </g>
  </g>
</svg>