<?xml version="1.0" encoding="UTF-8"?>
<svg id="Layer_1" data-name="Layer 1" xmlns="http://www.w3.org/2000/svg" viewBox="0 0 128.81 167.11">
  <defs>
    <style>
      .cls-1 {
        fill: #caa053;
      }
    </style>
  </defs>
  <path class="cls-1" d="M126.69,164.42c-1-.85-2.07-1.61-3.12-2.39-5.73-4.24-11.48-8.46-17.19-12.72-1.55-1.15-2.96-2.49-4.47-3.68-.73-.57-.49-.87-.12-1.65,.83-1.76,1.37-3.66,2.28-5.42,.96-1.87,.95-4.08,1.43-6.12,.69-2.91,.81-6.01,.83-9.03,.07-15.73,.03-31.45,.03-47.18,0-1,.02-2-.01-3,0-.21-.17-.57-.3-.59-.32-.05-.78-.07-.99,.12-2.13,1.82-4.28,3.62-6.31,5.56-2.71,2.58-5.31,5.28-7.96,7.93-.18,.18-.35,.35-.53,.53-.12-.32-.36-.65-.36-.97-.02-10.11-.02-20.22-.02-30.33,0-1,.03-2-.02-2.99-.02-.31-.21-.78-.44-.86-.26-.09-.74,.06-.96,.28-2.9,2.83-5.64,5.84-8.97,8.19-.18,.13-.35,.27-.53,.4-.1-.21-.29-.41-.3-.62-.03-.87-.01-1.75-.01-2.62,0-9.61-.03-19.22,.03-28.83,0-1.34-.3-2.3-1.29-3.24-2.85-2.7-5.73-5.36-8.65-7.99-5.97-5.38-11.19-11.56-17.49-16.61-.25-.2-.53-.38-.79-.58-.09,.34-.25,.68-.25,1.01-.01,12.36-.01,24.72-.01,37.08,0,1,.02,2-.01,3,0,.21-.17,.43-.26,.64-.18-.11-.37-.19-.53-.32-1.58-1.32-3.2-2.6-4.71-3.98-1.47-1.35-2.82-2.82-4.26-4.21-.23-.22-.67-.39-.95-.32-.22,.06-.47,.51-.49,.8-.06,.87-.02,1.75-.02,2.62,0,14.98,.01,29.96-.01,44.94,0,1.83-.21,3.65-.31,5.48-1.32-1.29-2.61-2.63-3.98-3.87-3.45-3.15-6.24-7.02-10.27-9.55-.3-.19-.53-.49-.8-.74-.12,.45-.33,.9-.34,1.35-.02,9.61-.01,19.22-.01,28.83,0,8.36-.01,16.73,0,25.09,0,2.17,.21,4.28,.63,6.45,.96,4.89,3,9.4,5.52,13.43,3.02,4.82,7.13,9.05,12,12.19,6.83,4.41,14.27,7.02,22.56,7.06,3.2,.01,6.37-.21,9.4-.93,2.65-.63,5.32-1.37,7.87-2.68,3.92-2.02,7.87-3.85,10.86-7.24,.42-.48,1.03-.79,1.55-1.17-.52-.66-.97-1.39-1.59-1.95-.6-.54-1.38-.88-2.05-1.35-.9-.64-1.68-.72-2.58,.09-1.25,1.12-2.51,2.27-3.93,3.17-4.82,3.04-10.05,4.97-15.79,5.24-1.87,.09-3.75-.04-5.62,.02-4.37,.15-8.31-1.34-12.26-2.97-5.15-2.14-9.03-5.89-12.78-9.82-.51-.53-.5-.98,.16-1.46,4.78-3.54,9.54-7.11,14.31-10.67,4-3,8.02-5.97,11.98-9.03,.73-.57,1.15-.68,1.85-.02,.58,.55,1.4,.85,2.04,1.36,2.64,2.09,5.11,4.43,7.89,6.3,3.86,2.59,7.46,5.48,11.17,8.25,2.5,1.87,4.98,3.74,7.38,5.76,3.25,2.74,7.06,4.8,10.31,7.53,3.59,3.01,7.65,5.39,11.06,8.65,2.22,2.12,4.84,3.59,8.17,2.87,.83-.18,1.74,.02,2.61-.04,.95-.07,1.9-.23,2.84-.36-.7-.71-1.36-1.46-2.12-2.11ZM56.02,12.84c.01-.44,.38-.79,.83-.77l.53,.02c.44,.01,.79,.38,.77,.83l-.02,.53c-.01,.44-.38,.79-.83,.77l-.53-.02c-.44-.01-.79-.38-.77-.83l.02-.53Zm2.11,14.66c-.01,.44-.38,.79-.83,.77l-.53-.02c-.44-.01-.79-.38-.77-.83l.02-.53c.01-.44,.38-.79,.83-.77l.53,.02c.44,.01,.79,.38,.77,.83l-.02,.53Zm.02,6.5l-.02,.53c-.01,.44-.38,.79-.83,.77l-.53-.02c-.44-.01-.79-.38-.77-.83l.02-.53c.01-.44,.38-.79,.83-.77l.53,.02c.44,.01,.79,.38,.77,.83Zm-.02-13.53c-.01,.44-.38,.79-.83,.77l-.53-.02c-.44-.01-.79-.38-.77-.83l.02-.53c.01-.44,.38-.79,.83-.77l.53,.02c.44,.01,.79,.38,.77,.83l-.02,.53Zm-2.2-4.87c.01-.44,.38-.79,.83-.77l.53,.02c.44,.01,.79,.38,.77,.83l-.02,.53c-.01,.44-.38,.79-.83,.77l-.53-.02c-.44-.01-.79-.38-.77-.83l.02-.53Zm0,7.03c.01-.44,.38-.79,.83-.77l.53,.02c.44,.01,.79,.38,.77,.83l-.02,.53c-.01,.44-.38,.79-.83,.77l-.53-.02c-.44-.01-.79-.38-.77-.83l.02-.53Zm0,7.03c.01-.44,.38-.79,.83-.77l.53,.02c.44,.01,.79,.38,.77,.83l-.02,.53c-.01,.44-.38,.79-.83,.77l-.53-.02c-.44-.01-.79-.38-.77-.83l.02-.53Zm0,7.03c.01-.44,.38-.79,.83-.77l.53,.02c.44,.01,.79,.38,.77,.83l-.02,.53c-.01,.44-.38,.79-.83,.77l-.53-.02c-.44-.01-.79-.38-.77-.83l.02-.53Zm-2.65-23.94c.01-.44,.38-.79,.83-.77l.53,.02c.44,.01,.79,.38,.77,.83l-.02,.53c-.01,.44-.38,.79-.83,.77l-.53-.02c-.44-.01-.79-.38-.77-.83l.02-.53Zm2.11,14.66c-.01,.44-.38,.79-.83,.77l-.53-.02c-.44-.01-.79-.38-.77-.83l.02-.53c.01-.44,.38-.79,.83-.77l.53,.02c.44,.01,.79,.38,.77,.83l-.02,.53Zm.02,6.5l-.02,.53c-.01,.44-.38,.79-.83,.77l-.53-.02c-.44-.01-.79-.38-.77-.83l.02-.53c.01-.44,.38-.79,.83-.77l.53,.02c.44,.01,.79,.38,.77,.83Zm-.02-13.53c-.01,.44-.38,.79-.83,.77l-.53-.02c-.44-.01-.79-.38-.77-.83l.02-.53c.01-.44,.38-.79,.83-.77l.53,.02c.44,.01,.79,.38,.77,.83l-.02,.53Zm-2.2-4.87c.01-.44,.38-.79,.83-.77l.53,.02c.44,.01,.79,.38,.77,.83l-.02,.53c-.01,.44-.38,.79-.83,.77l-.53-.02c-.44-.01-.79-.38-.77-.83l.02-.53Zm0,7.03c.01-.44,.38-.79,.83-.77l.53,.02c.44,.01,.79,.38,.77,.83l-.02,.53c-.01,.44-.38,.79-.83,.77l-.53-.02c-.44-.01-.79-.38-.77-.83l.02-.53Zm0,7.03c.01-.44,.38-.79,.83-.77l.53,.02c.44,.01,.79,.38,.77,.83l-.02,.53c-.01,.44-.38,.79-.83,.77l-.53-.02c-.44-.01-.79-.38-.77-.83l.02-.53Zm0,7.03c.01-.44,.38-.79,.83-.77l.53,.02c.44,.01,.79,.38,.77,.83l-.02,.53c-.01,.44-.38,.79-.83,.77l-.53-.02c-.44-.01-.79-.38-.77-.83l.02-.53Zm-7.44,91.47c.07,2.47-.65,4.24-2.51,5.72-2.79,2.21-5.49,4.56-8.61,6.32-1.87,1.06-2.18,1.01-2.76-.93-.63-2.11-1.56-4.1-1.97-6.3-1.37-7.23-.36-14.51-.69-21.76-.04-.87,0-1.74,0-2.62,0-6.85,0-13.71,.01-20.56,0-.34,.15-.68,.23-1.02,.26,.17,.53,.35,.79,.52,4.19,2.72,7.2,6.69,10.78,10.06,1.62,1.52,3.68,2.95,4.5,4.86,.77,1.79,.16,4.17,.16,6.29,0,6.48-.13,12.96,.07,19.44Zm15.66-37.19c0,8.98-.01,17.95,.01,26.93,0,1.62-.12,2.73-1.98,3.7-2.61,1.36-4.76,3.59-7.13,5.41-.25,.2-.73,.35-.98,.24-.23-.1-.39-.59-.39-.91-.02-6.61-.02-13.22-.02-19.82,0-1.75-.2-3.52,.05-5.23,.39-2.63-.95-4.15-2.88-5.45-.59-.4-1.17-.79-1.74-1.21-1.07-.78-1.46-1.76-1.46-3.15,.06-14.59,.03-29.18,.05-43.76,0-.43,.25-.85,.38-1.28,.26,.26,.53,.53,.79,.79,1.32,1.32,2.61,2.68,3.97,3.96,3.31,3.11,6.63,6.21,10.02,9.24,1.01,.91,1.34,1.87,1.33,3.22-.06,9.1-.03,18.2-.03,27.31Zm8.21,28.84c0,.44,.3,1.64-.42,1.23-.54-.31-1.96,.03-1.81-1.33,.03-.25,0-.5,0-.75,0-12.32,.01-24.64-.03-36.96,0-1.08,.12-2,1.1-2.51,.26-.13,1.05,.15,1.12,.39,.17,.57,.05,1.23,.05,1.85v18.67c0,6.47,.01,12.94-.03,19.41Zm2.25,2.61c-.02,.15-.38,.39-.55,.37-.32-.05-.76-.18-.89-.41-.15-.29-.04-.73-.04-1.1v-42.63c0-.37-.06-.76,.03-1.12,.04-.17,.38-.39,.55-.37,.32,.05,.85,.21,.88,.4,.12,.6,.04,1.24,.04,1.86v41.13c0,.62,.04,1.25-.03,1.87Zm3,2.24c-.02,.15-.37,.39-.54,.37-.32-.04-.83-.19-.89-.4-.14-.46-.04-.98-.04-1.48v-45.97c0-.62-.13-1.28,.04-1.86,.12-.42,.64-.73,.98-1.09,.16,.36,.46,.73,.46,1.09,.03,8.1,.02,16.2,.02,24.29v23.17c0,.62,.04,1.25-.03,1.87Zm2.98,2.2c-.12,.24-.56,.37-.88,.42-.17,.02-.54-.22-.55-.36-.06-.74-.03-1.49-.03-2.24v-50.87c0-.75-.06-1.5,.04-2.24,.02-.18,.56-.36,.88-.4,.17-.02,.51,.2,.55,.37,.09,.35,.03,.74,.03,1.12v53.11c0,.37,.12,.81-.04,1.1Zm2.99-31.44c-.13,.42-.64,.72-.98,1.08-.16-.36-.45-.73-.46-1.09-.03-8.2-.02-16.4-.02-24.61,0-.5-.13-1.05,.04-1.48,.17-.42,.64-.73,.98-1.08,.16,.36,.45,.73,.46,1.09,.03,4.22,.02,8.45,.02,12.68v11.56c0,.62,.13,1.28-.04,1.85Zm2.26-1.42c-.3,.17-.68,.38-.96,.31-.22-.06-.48-.51-.49-.8-.04-2.11-.02-4.22-.02-6.33,0-6.08,0-12.17,.01-18.25,0-.71-.03-1.51,.27-2.12,.31-.63,1.01-1.08,1.53-1.6,.15,.64,.41,1.28,.42,1.93,.04,4.1,.02,8.19,.02,12.29s0,8.19,0,12.29c0,.87,.14,1.76-.79,2.28Zm16.45,34.32c-.12,3.99-1.11,7.87-2.94,11.49-.5,1-1.31,1.33-2.11,.72-2.29-1.73-4.54-3.52-6.8-5.28-.1-.08-.17-.19-.27-.26-1.13-.88-2.75-1.55-3.27-2.7-.6-1.36-.28-3.14-.28-4.74-.02-7.98,.02-15.97-.04-23.95-.01-1.45,.28-2.52,1.42-3.56,4.55-4.16,8.99-8.44,13.48-12.67,.17-.16,.35-.29,.53-.44,.11,.33,.3,.65,.31,.99,.04,1.12,.02,2.24,.02,3.37v17.59c0,6.49,.15,12.98-.05,19.46Z"/>
  <path class="cls-1" d="M5.07,166.9c-1.12,0-2.24,.04-3.36-.02-.58-.03-1.14-.23-1.71-.36,.44-.44,.84-.94,1.33-1.31,6.32-4.85,12.65-9.7,19.01-14.5,.92-.7,2.08-1.76,2.96-1.62,.85,.14,1.53,1.59,2.2,2.52,1.25,1.73,.97,2.8-.81,4.08-2.5,1.8-4.96,3.68-7.41,5.55-2.27,1.74-4.51,3.53-6.79,5.25-.35,.26-.87,.38-1.32,.4-1.37,.05-2.74,.02-4.11,.02Z"/>
  <g>
    <rect class="cls-1" x="58.42" y="139.17" width="5.23" height="5.23" rx=".8" ry=".8"/>
    <rect class="cls-1" x="65.15" y="139.17" width="5.23" height="5.23" rx=".8" ry=".8"/>
    <rect class="cls-1" x="65.15" y="145.96" width="5.23" height="5.23" rx=".8" ry=".8"/>
    <rect class="cls-1" x="58.42" y="145.96" width="5.23" height="5.23" rx=".8" ry=".8"/>
  </g>
  <g>
    <g>
      <rect class="cls-1" x="46.4" y="83.71" width="2.84" height="2.84" rx=".8" ry=".8" transform="translate(2.83 -1.53) rotate(1.89)"/>
      <rect class="cls-1" x="50.06" y="83.83" width="2.84" height="2.84" rx=".8" ry=".8" transform="translate(2.84 -1.65) rotate(1.89)"/>
      <rect class="cls-1" x="49.94" y="87.52" width="2.84" height="2.84" rx=".8" ry=".8" transform="translate(2.96 -1.64) rotate(1.89)"/>
      <rect class="cls-1" x="46.28" y="87.4" width="2.84" height="2.84" rx=".8" ry=".8" transform="translate(2.95 -1.52) rotate(1.89)"/>
    </g>
    <g>
      <rect class="cls-1" x="46.4" y="74.35" width="2.84" height="2.84" rx=".8" ry=".8" transform="translate(2.52 -1.54) rotate(1.89)"/>
      <rect class="cls-1" x="50.06" y="74.47" width="2.84" height="2.84" rx=".8" ry=".8" transform="translate(2.53 -1.66) rotate(1.89)"/>
      <rect class="cls-1" x="49.94" y="78.15" width="2.84" height="2.84" rx=".8" ry=".8" transform="translate(2.65 -1.65) rotate(1.89)"/>
      <rect class="cls-1" x="46.28" y="78.03" width="2.84" height="2.84" rx=".8" ry=".8" transform="translate(2.65 -1.53) rotate(1.89)"/>
    </g>
    <g>
      <rect class="cls-1" x="46.4" y="64.98" width="2.84" height="2.84" rx=".8" ry=".8" transform="translate(2.21 -1.54) rotate(1.89)"/>
      <rect class="cls-1" x="50.06" y="65.1" width="2.84" height="2.84" rx=".8" ry=".8" transform="translate(2.22 -1.66) rotate(1.89)"/>
      <rect class="cls-1" x="49.94" y="68.78" width="2.84" height="2.84" rx=".8" ry=".8" transform="translate(2.34 -1.65) rotate(1.89)"/>
      <rect class="cls-1" x="46.28" y="68.66" width="2.84" height="2.84" rx=".8" ry=".8" transform="translate(2.34 -1.53) rotate(1.89)"/>
    </g>
    <g>
      <rect class="cls-1" x="46.4" y="55.61" width="2.84" height="2.84" rx=".8" ry=".8" transform="translate(1.91 -1.55) rotate(1.89)"/>
      <rect class="cls-1" x="50.06" y="55.73" width="2.84" height="2.84" rx=".8" ry=".8" transform="translate(1.91 -1.67) rotate(1.89)"/>
      <rect class="cls-1" x="49.94" y="59.41" width="2.84" height="2.84" rx=".8" ry=".8" transform="translate(2.03 -1.66) rotate(1.89)"/>
      <rect class="cls-1" x="46.28" y="59.29" width="2.84" height="2.84" rx=".8" ry=".8" transform="translate(2.03 -1.54) rotate(1.89)"/>
    </g>
  </g>
</svg>