<svg width="150" height="182" viewBox="0 0 150 182" fill="#000000" xmlns="http://www.w3.org/2000/svg">
<path  d="M123.654 158.486C101.92 158.486 80.257 158.486 58.5511 158.486C58.5511 131.419 58.5511 104.424 58.5511 77.3838C59.9306 77.3838 61.2825 77.3838 62.6782 77.3838C62.6782 92.035 62.6782 106.664 62.6782 121.351C66.1026 121.351 69.4843 121.351 72.906 121.351C72.906 104.338 72.906 87.3074 72.906 70.244C64.4837 70.244 56.0706 70.244 47.6008 70.244C47.6008 88.5916 47.6008 106.923 47.6008 125.313C40.3316 125.313 33.1186 125.313 25.8544 125.313C25.8544 134.986 25.8544 144.6 25.8544 154.256C33.8334 154.256 41.8032 154.256 49.8254 154.256C49.8254 147.87 49.8254 141.47 49.8254 135.033C43.9544 135.033 38.1059 135.033 32.2048 135.033C32.2048 133.648 32.2048 132.297 32.2048 130.911C39.459 130.911 46.7204 130.911 54.0307 130.911C54.0307 140.071 54.0307 149.238 54.0307 158.446C43.2678 158.446 32.5145 158.446 21.6925 158.446C21.6925 147.451 21.6925 136.442 21.6925 125.364C18.2646 125.364 14.9042 125.364 11.5036 125.364C11.5036 123.96 11.5036 122.625 11.5036 121.214C14.8567 121.214 18.2178 121.214 21.6404 121.214C21.6404 106.583 21.6404 92.0273 21.6404 77.4314C23.0372 77.4314 24.3724 77.4314 25.7873 77.4314C25.7873 91.9924 25.7873 106.542 25.7873 121.137C31.6836 121.137 37.5007 121.137 43.4063 121.137C43.4063 102.789 43.4063 84.4421 43.4063 66.032C48.4839 66.032 53.4737 66.032 58.5235 66.032C58.5235 49.5757 58.5235 33.1823 58.5235 16.7512C69.5472 16.7512 80.5105 16.7512 91.5321 16.7512C91.5321 48.4852 91.5321 80.1997 91.5321 111.961C95.1178 111.961 98.6458 111.961 102.258 111.961C102.258 87.5076 102.258 63.0471 102.258 38.5487C105.635 38.5487 108.928 38.5487 112.259 38.5487C112.259 39.8937 112.259 41.2271 112.259 42.6418C110.341 42.6418 108.421 42.6418 106.446 42.6418C106.446 67.1713 106.446 91.6198 106.446 116.109C100.08 116.109 93.7698 116.109 87.4009 116.109C87.4009 84.3814 87.4009 52.6666 87.4009 20.9079C79.1631 20.9079 70.9836 20.9079 62.7534 20.9079C62.7534 35.9227 62.7534 50.924 62.7534 66.0011C67.4937 66.0011 72.2715 66.0011 77.0856 66.0011C77.0856 85.874 77.0856 105.671 77.0856 125.531C72.3239 125.531 67.567 125.531 62.7562 125.531C62.7562 135.136 62.7562 144.678 62.7562 154.254C69.2374 154.254 75.7134 154.254 82.2406 154.254C82.2406 147.138 82.2406 140.063 82.2406 132.938C83.6418 132.938 84.9924 132.938 86.3905 132.938C86.3905 140.037 86.3905 147.11 86.3905 154.239C89.2265 154.239 92.016 154.239 94.878 154.239C94.878 147.135 94.878 140.043 94.878 132.919C96.2837 132.919 97.6171 132.919 99.018 132.919C99.018 140.038 99.018 147.13 99.018 154.259C102.049 154.259 105.013 154.259 108.045 154.259C108.045 147.153 108.045 140.06 108.045 132.926C109.445 132.926 110.778 132.926 112.186 132.926C112.186 140.027 112.186 147.117 112.186 154.252C114.723 154.252 117.185 154.252 119.7 154.252C119.7 146.47 119.7 138.715 119.7 130.918C125.402 130.918 131.051 130.918 136.733 130.918C136.733 140.092 136.733 149.242 136.733 158.486C132.384 158.486 128.055 158.486 123.654 158.486ZM128.966 154.295C130.161 154.295 131.356 154.295 132.556 154.295C132.556 147.827 132.556 141.444 132.556 135.046C129.667 135.046 126.821 135.046 123.934 135.046C123.934 141.459 123.934 147.841 123.934 154.295C125.58 154.295 127.202 154.295 128.966 154.295Z" fill="#000"/>
<path d="M72.2379 166.591C89.0141 166.591 105.719 166.591 122.461 166.591C122.461 168.014 122.461 169.368 122.461 170.76C85.5515 170.76 48.6726 170.76 11.767 170.76C11.767 158.131 11.767 145.54 11.767 132.917C13.1186 132.917 14.433 132.917 15.8261 132.917C15.8261 144.109 15.8261 155.303 15.8261 166.591C34.6586 166.591 53.4129 166.591 72.2379 166.591Z" fill="#000"/>
<path d="M121.667 42.6598C120.206 42.6598 118.815 42.6598 117.376 42.6598C117.376 41.2843 117.376 39.9509 117.376 38.5626C120.65 38.5626 123.936 38.5626 127.282 38.5626C127.282 66.1545 127.282 93.7385 127.282 121.39C130.468 121.39 133.595 121.39 136.767 121.39C136.767 122.791 136.767 124.126 136.767 125.521C132.265 125.521 127.749 125.521 123.148 125.521C123.148 97.9306 123.148 70.3303 123.148 42.6598C122.622 42.6598 122.179 42.6598 121.667 42.6598Z" fill="#000"/>
<path d="M75.0716 13.7075C74.3927 13.7075 73.7841 13.7075 73.1329 13.7075C73.1329 12.3021 73.1329 10.9472 73.1329 9.54297C74.479 9.54297 75.8328 9.54297 77.2297 9.54297C77.2297 10.9099 77.2297 12.2861 77.2297 13.7075C76.502 13.7075 75.8219 13.7075 75.0716 13.7075Z" fill="#000"/>
<path d="M80.943 9.55358C82.3349 9.50598 83.6784 9.50598 85.0714 9.50598C85.0714 10.894 85.0714 12.2669 85.0714 13.6737C83.6882 13.6737 82.3287 13.6737 80.8946 13.6737C80.8946 12.3172 80.8946 10.9592 80.943 9.55358Z" fill="#000"/>
<path d="M130.585 166.556C130.859 166.555 131.063 166.555 131.291 166.555C131.291 167.98 131.291 169.339 131.291 170.748C129.933 170.748 128.579 170.748 127.17 170.748C127.17 169.394 127.17 168.021 127.17 166.557C128.275 166.557 129.395 166.557 130.585 166.556Z" fill="#000"/>
<path d="M138.949 170.49C138.807 170.637 138.667 170.785 138.525 170.787C137.303 170.806 136.08 170.798 134.801 170.798C134.801 169.397 134.801 168.024 134.801 166.604C136.146 166.604 137.499 166.604 138.949 166.604C138.949 167.857 138.949 169.141 138.949 170.49Z" fill="#000"/>
<path d="M98.6444 125.171C98.6455 125.398 98.6455 125.559 98.6455 125.75C97.2405 125.75 95.8863 125.75 94.4846 125.75C94.4846 124.374 94.4846 123.004 94.4846 121.594C95.8541 121.594 97.2081 121.594 98.6432 121.594C98.6432 122.765 98.6432 123.935 98.6444 125.171Z" fill="#000"/>
<path d="M66.02 9.49614C67.1717 9.49609 68.2537 9.49609 69.3907 9.49609C69.3907 10.8951 69.3907 12.2661 69.3907 13.6718C68.0425 13.6718 66.7084 13.6718 65.3163 13.6718C65.3163 12.3186 65.3163 10.965 65.3163 9.49618C65.5083 9.49618 65.7293 9.49618 66.02 9.49614Z" fill="#000"/>
</svg>
